<svg xmlns="http://www.w3.org/2000/svg" viewBox="0 0 100 40" width="100" height="40">
  <g fill="#1F70C1">
    <!-- I -->
    <rect x="0" y="0" width="14" height="5"/>
    <rect x="4" y="7" width="6" height="5"/>
    <rect x="4" y="14" width="6" height="5"/>
    <rect x="4" y="21" width="6" height="5"/>
    <rect x="4" y="28" width="6" height="5"/>
    <rect x="0" y="35" width="14" height="5"/>
    <!-- B -->
    <rect x="18" y="0" width="6" height="5"/>
    <rect x="24" y="0" width="8" height="5"/>
    <rect x="32" y="2" width="5" height="3"/>
    <rect x="18" y="7" width="6" height="5"/>
    <rect x="18" y="14" width="6" height="5"/>
    <rect x="24" y="14" width="8" height="5"/>
    <rect x="32" y="16" width="5" height="3"/>
    <rect x="18" y="21" width="6" height="5"/>
    <rect x="18" y="28" width="6" height="5"/>
    <rect x="18" y="35" width="6" height="5"/>
    <rect x="24" y="35" width="8" height="5"/>
    <rect x="32" y="33" width="5" height="3"/>
    <!-- M -->
    <rect x="42" y="0" width="6" height="5"/>
    <rect x="42" y="7" width="6" height="5"/>
    <rect x="48" y="7" width="5" height="5"/>
    <rect x="53" y="0" width="6" height="5"/>
    <rect x="59" y="7" width="5" height="5"/>
    <rect x="64" y="0" width="6" height="5"/>
    <rect x="64" y="7" width="6" height="5"/>
    <rect x="42" y="14" width="6" height="5"/>
    <rect x="64" y="14" width="6" height="5"/>
    <rect x="42" y="21" width="6" height="5"/>
    <rect x="64" y="21" width="6" height="5"/>
    <rect x="42" y="28" width="6" height="5"/>
    <rect x="64" y="28" width="6" height="5"/>
    <rect x="42" y="35" width="6" height="5"/>
    <rect x="64" y="35" width="6" height="5"/>
  </g>
</svg>
